<svg xmlns="http://www.w3.org/2000/svg" viewBox="0 0 32 40" x="0px" y="0px"><path d="M23.5,12.5a.5.5,0,0,0-.5.5V26a1,1,0,0,1-.49.86,1,1,0,0,1-1,0l-4.59-2.44a2,2,0,0,0-1.88,0l-4.59,2.44a1,1,0,0,1-1,0A1,1,0,0,1,9,26V10.5A2.5,2.5,0,0,1,11.5,8H18a.5.5,0,0,0,0-1H11.5A3.5,3.5,0,0,0,8,10.5V26a2,2,0,0,0,1,1.71A1.91,1.91,0,0,0,10,28a2,2,0,0,0,.94-.24l4.59-2.44a1,1,0,0,1,.94,0l4.59,2.44A2,2,0,0,0,24,26V13A.5.5,0,0,0,23.5,12.5Z"/><path d="M26.5,7H24V4.5a.5.5,0,0,0-1,0V7H20.5a.5.5,0,0,0,0,1H23v2.5a.5.5,0,0,0,1,0V8h2.5a.5.5,0,0,0,0-1Z"/><text x="0" y="47" fill="#000000" font-size="5px" font-weight="bold" font-family="'Helvetica Neue', Helvetica, Arial-Unicode, Arial, Sans-serif">Created by Abhishek Pipalva</text><text x="0" y="52" fill="#000000" font-size="5px" font-weight="bold" font-family="'Helvetica Neue', Helvetica, Arial-Unicode, Arial, Sans-serif">from the Noun Project</text></svg>